<svg width="26" height="26" viewBox="0 0 26 26" fill="none" xmlns="http://www.w3.org/2000/svg">
<g clip-path="url(#clip0_325_888)">
<path d="M19.0294 7.48416H19.0398M8.07286 2.91895H18.5076C21.3891 2.91895 23.725 5.18996 23.725 7.99141V18.1363C23.725 20.9378 21.3891 23.2088 18.5076 23.2088H8.07286C5.19137 23.2088 2.85547 20.9378 2.85547 18.1363V7.99141C2.85547 5.18996 5.19137 2.91895 8.07286 2.91895ZM17.4642 12.4247C17.5929 13.269 17.4446 14.1313 17.0403 14.889C16.6359 15.6466 15.9961 16.261 15.2119 16.6447C14.4278 17.0284 13.5391 17.162 12.6723 17.0264C11.8055 16.8908 11.0048 16.4929 10.384 15.8894C9.76321 15.2859 9.35397 14.5074 9.2145 13.6647C9.07502 12.822 9.21241 11.958 9.60711 11.1956C10.0018 10.4331 10.6337 9.81115 11.413 9.41803C12.1923 9.02492 13.0792 8.8807 13.9476 9.0059C14.8335 9.13361 15.6536 9.53492 16.2868 10.1506C16.92 10.7662 17.3328 11.5635 17.4642 12.4247Z" stroke="#1E1E1E" stroke-width="2.78261" stroke-linecap="round" stroke-linejoin="round"/>
</g>
<defs>
<clipPath id="clip0_325_888">
<rect width="25.0435" height="24.3478" fill="white" transform="translate(0.768555 0.890137)"/>
</clipPath>
</defs>
</svg>
