<svg width="26" height="25" viewBox="0 0 26 25" fill="none" xmlns="http://www.w3.org/2000/svg">
<path d="M12.9559 22.7103C12.7192 22.7103 12.5163 22.6426 12.3472 22.5074C12.1782 22.3721 12.0514 22.1946 11.9668 21.9748C11.6456 21.0279 11.2398 20.1402 10.7494 19.3117C10.276 18.4832 9.60812 17.511 8.7458 16.395C7.88348 15.2791 7.18179 14.2139 6.64072 13.1994C6.11657 12.1849 5.85449 10.9591 5.85449 9.52186C5.85449 7.5436 6.53927 5.86968 7.90884 4.50012C9.29531 3.11365 10.9777 2.42041 12.9559 2.42041C14.9342 2.42041 16.6081 3.11365 17.9777 4.50012C19.3642 5.86968 20.0574 7.5436 20.0574 9.52186C20.0574 11.0605 19.7615 12.3455 19.1697 13.3769C18.5948 14.3914 17.927 15.3975 17.1661 16.395C16.253 17.6124 15.5598 18.6269 15.0864 19.4385C14.6299 20.2332 14.2494 21.0786 13.9451 21.9748C13.8605 22.2115 13.7253 22.3975 13.5393 22.5327C13.3702 22.6511 13.1757 22.7103 12.9559 22.7103ZM12.9559 19.0835C13.2434 18.5086 13.5646 17.9421 13.9197 17.3842C14.2917 16.8262 14.8328 16.0822 15.5429 15.1523C16.27 14.2054 16.8617 13.3347 17.3183 12.54C17.7917 11.7284 18.0284 10.7223 18.0284 9.52186C18.0284 8.11848 17.5296 6.92645 16.532 5.94577C15.5514 4.94819 14.3593 4.4494 12.9559 4.4494C11.5526 4.4494 10.3521 4.94819 9.35449 5.94577C8.37382 6.92645 7.88348 8.11848 7.88348 9.52186C7.88348 10.7223 8.11174 11.7284 8.56826 12.54C9.04169 13.3347 9.64193 14.2054 10.369 15.1523C11.0791 16.0822 11.6117 16.8262 11.9668 17.3842C12.3388 17.9421 12.6685 18.5086 12.9559 19.0835ZM12.9559 12.0581C13.6661 12.0581 14.2663 11.8129 14.7567 11.3226C15.247 10.8322 15.4922 10.232 15.4922 9.52186C15.4922 8.81171 15.247 8.21147 14.7567 7.72113C14.2663 7.2308 13.6661 6.98563 12.9559 6.98563C12.2458 6.98563 11.6456 7.2308 11.1552 7.72113C10.6649 8.21147 10.4197 8.81171 10.4197 9.52186C10.4197 10.232 10.6649 10.8322 11.1552 11.3226C11.6456 11.8129 12.2458 12.0581 12.9559 12.0581Z" fill="#1D1B20"/>
</svg>
