<svg width="24" height="23" viewBox="0 0 24 23" fill="none" xmlns="http://www.w3.org/2000/svg">
<path d="M21.1745 15.7969V18.5795C21.1755 18.8379 21.1226 19.0936 21.0191 19.3302C20.9156 19.5669 20.7639 19.7794 20.5735 19.954C20.3832 20.1287 20.1584 20.2616 19.9137 20.3444C19.669 20.4271 19.4097 20.4579 19.1525 20.4346C16.2983 20.1245 13.5566 19.1492 11.1478 17.5871C8.90673 16.163 7.00668 14.263 5.5826 12.0219C4.01505 9.60211 3.03952 6.84714 2.73507 3.98013C2.71189 3.72363 2.74237 3.46512 2.82458 3.22105C2.90678 2.97699 3.0389 2.75271 3.21253 2.5625C3.38616 2.37229 3.5975 2.22032 3.83308 2.11626C4.06866 2.01221 4.32333 1.95834 4.58086 1.9581H7.36347C7.81361 1.95367 8.25001 2.11307 8.59131 2.40659C8.93262 2.70011 9.15555 3.10773 9.21855 3.55346C9.33599 4.44396 9.5538 5.31831 9.86782 6.15984C9.99262 6.49182 10.0196 6.85263 9.94565 7.19949C9.87167 7.54636 9.69981 7.86475 9.45043 8.11694L8.27246 9.29491C9.59286 11.617 11.5155 13.5397 13.8377 14.8601L15.0156 13.6822C15.2678 13.4328 15.5862 13.2609 15.9331 13.1869C16.28 13.113 16.6408 13.14 16.9727 13.2648C17.8143 13.5788 18.6886 13.7966 19.5791 13.914C20.0297 13.9776 20.4412 14.2046 20.7353 14.5517C21.0295 14.8989 21.1858 15.3421 21.1745 15.7969Z" stroke="#1E1E1E" stroke-width="1.85507" stroke-linecap="round" stroke-linejoin="round"/>
</svg>
